<svg id="e2b6a502-0489-433b-8771-767d793977c4" data-name="Layer 1" xmlns="http://www.w3.org/2000/svg"  viewBox="0 0 20 19.76667"><title>ArrowLeft</title><path d="M17.65,19.23334H2.35a1.68549,1.68549,0,0,1-1.7-1.7v-15.3a1.75238,1.75238,0,0,1,1.7-1.7h15.3a1.75238,1.75238,0,0,1,1.7,1.7v15.3A1.62752,1.62752,0,0,1,17.65,19.23334Z" style="fill:none;stroke:#424242;stroke-miterlimit:10;stroke-width:1.121999979019165px"/><path d="M5.825,9.68784h9.1a.2.2,0,0,1,0,.4h-9c.1.1.1.1.1.2l1.3,1.3a.36736.36736,0,0,1,.1.3.21509.21509,0,0,1-.2.2.36737.36737,0,0,1-.3-.1l-.9-.9-1-1c-.2-.2-.2-.3,0-.4l1.9-1.9c.2-.2.4-.1.4.1,0,.1-.1.2-.1.3l-1.3,1.3A.34922.34922,0,0,0,5.825,9.68784Z" style="fill:#424242;stroke:#424242;stroke-miterlimit:10;stroke-width:0.800000011920929px"/></svg>