<svg id="3f97ac8a-e72c-414b-bab2-ae6c16d24ba7" data-name="Layer 1" xmlns="http://www.w3.org/2000/svg"  viewBox="0 0 20 19.76667"><title>ArrowRight</title><path d="M2.35,19.23334h15.3a1.68549,1.68549,0,0,0,1.7-1.7v-15.3a1.75238,1.75238,0,0,0-1.7-1.7H2.35a1.68548,1.68548,0,0,0-1.7,1.7v15.3A1.68548,1.68548,0,0,0,2.35,19.23334Z" style="fill:none;stroke:#424242;stroke-miterlimit:10;stroke-width:1.121999979019165px"/><path d="M14.25,9.73334H5.15a.2.2,0,1,0,0,.4h9c-.1.1-.1.1-.1.2l-1.3,1.3a.36737.36737,0,0,0-.1.3.21509.21509,0,0,0,.2.2.36737.36737,0,0,0,.3-.1l.9-.9,1-1c.2-.2.2-.3,0-.4l-1.9-1.9c-.2-.2-.4-.1-.4.1,0,.1.1.2.1.3l1.3,1.3A.3097.3097,0,0,0,14.25,9.73334Z" style="fill:#424242;stroke:#424242;stroke-miterlimit:10;stroke-width:0.800000011920929px"/></svg>