<svg id="f7eee9a6-69d8-4c2f-b0de-c3b6fa9f93e4" data-name="Layer 1" xmlns="http://www.w3.org/2000/svg"  viewBox="0 0 20 19.76667"><title>ArrowDown</title><path d="M.65,2.21667v15.3a1.68548,1.68548,0,0,0,1.7,1.7h15.3a1.68548,1.68548,0,0,0,1.7-1.7v-15.3a1.68548,1.68548,0,0,0-1.7-1.7H2.35A1.75024,1.75024,0,0,0,.65,2.21667Z" style="fill:none;stroke:gray;stroke-miterlimit:10;stroke-width:1.12199997901917px"/><path d="M10.25,14.11667v-9.1a.2.2,0,1,0-.4,0v9c-.1-.1-.1-.1-.2-.1l-1.3-1.3a.36737.36737,0,0,0-.3-.1.21508.21508,0,0,0-.2.2.36737.36737,0,0,0,.1.3l.9.9,1,1c.2.2.3.2.4,0l1.9-1.9c.2-.2.1-.4-.1-.4-.1,0-.2.1-.3.1l-1.3,1.3C10.35,14.01667,10.25,14.01667,10.25,14.11667Z" style="fill:#424242;stroke:gray;stroke-miterlimit:10;stroke-width:0.800000011920929px"/></svg>