<svg id="533242e0-7f8a-4c1e-8918-ab85fc36bbd5" data-name="Layer 1" xmlns="http://www.w3.org/2000/svg"  viewBox="0 0 20 19.76667"><title>ArrowUp</title><path d="M.65,17.53334v-15.3a1.68548,1.68548,0,0,1,1.7-1.7h15.3a1.68548,1.68548,0,0,1,1.7,1.7v15.3a1.68548,1.68548,0,0,1-1.7,1.7H2.35A1.62752,1.62752,0,0,1,.65,17.53334Z" style="fill:none;stroke:#424242;stroke-miterlimit:10;stroke-width:1.121999979019165px"/><path d="M10.19549,5.70834v9.1a.2.2,0,0,1-.4,0v-9c-.1.1-.1.1-.2.1l-1.3,1.3a.36737.36737,0,0,1-.3.1.21508.21508,0,0,1-.2-.2.36737.36737,0,0,1,.1-.3l.9-.9,1-1c.2-.2.3-.2.4,0l1.9,1.9c.2.2.1.4-.1.4-.1,0-.2-.1-.3-.1l-1.3-1.3A.34915.34915,0,0,1,10.19549,5.70834Z" style="fill:#424242;stroke:#424242;stroke-miterlimit:10;stroke-width:0.800000011920929px"/></svg>