<?xml version="1.0" encoding="UTF-8"?>
<svg enable-background="new 0 0 80 50" version="1.1" viewBox="0 0 80 50" xml:space="preserve" xmlns="http://www.w3.org/2000/svg">
<style type="text/css">
	.st0{fill:none;stroke:#424242;stroke-width:1.122;stroke-miterlimit:10;}
	.st1{fill:#424242;stroke:#424242;stroke-width:0.8;stroke-miterlimit:10;}
</style>
	<path class="st0" d="m24.1 46.1h-15.3c-0.9 0-1.7-0.7-1.7-1.7v-15.3c0-0.9 0.8-1.7 1.7-1.7h15.3c0.9 0 1.7 0.8 1.7 1.7v15.3c0 1-0.7 1.7-1.7 1.7z"/>
		<path class="st1" d="m12.3 36.6h2.1 6.8 0.2c0.1 0 0.2 0.1 0.2 0.2s-0.1 0.2-0.2 0.2h-0.2-8.6-0.2c0.1 0.1 0.1 0.1 0.1 0.2l1.3 1.3c0.1 0.1 0.1 0.2 0.1 0.3s-0.1 0.2-0.2 0.2-0.2 0-0.3-0.1l-0.9-0.9-1-1c-0.2-0.2-0.2-0.3 0-0.4l1.9-1.9c0.2-0.2 0.4-0.1 0.4 0.1 0 0.1-0.1 0.2-0.1 0.3l-1.3 1.3s-0.1 0.1-0.1 0.2z"/>
	<path class="st0" d="m55.9 46.1h15.3c0.9 0 1.7-0.7 1.7-1.7v-15.3c0-0.9-0.8-1.7-1.7-1.7h-15.3c-1 0-1.7 0.8-1.7 1.7v15.3c0 1 0.8 1.7 1.7 1.7z"/>
		<path class="st1" d="m67.8 36.6h-2.1-6.8-0.2c-0.1 0-0.2 0.1-0.2 0.2s0.1 0.2 0.2 0.2h0.2 8.6 0.2c-0.1 0.1-0.1 0.1-0.1 0.2l-1.3 1.3c-0.1 0.1-0.1 0.2-0.1 0.3s0.1 0.2 0.2 0.2 0.2 0 0.3-0.1l0.9-0.9 1-1c0.2-0.2 0.2-0.3 0-0.4l-1.9-1.9c-0.2-0.2-0.4-0.1-0.4 0.1 0 0.1 0.1 0.2 0.1 0.3l1.3 1.3s0 0.1 0.1 0.2z"/>
	<path class="st0" d="m30.7 20.9v-15.3c0-0.9 0.7-1.7 1.7-1.7h15.3c1 0 1.7 0.8 1.7 1.7v15.3c0 0.9-0.7 1.7-1.7 1.7h-15.3c-1 0-1.7-0.7-1.7-1.7z"/>
		<path class="st1" d="m40.3 9.1v2.1 6.8 0.2s-0.1 0.2-0.2 0.2-0.2-0.1-0.2-0.2 0-0.1 0-0.2v-8.6-0.2c-0.1 0.1-0.1 0.1-0.2 0.1l-1.3 1.3c-0.1 0.1-0.2 0.1-0.3 0.1s-0.2-0.1-0.2-0.2 0-0.2 0.1-0.3l0.9-0.9 1-1c0.2-0.2 0.3-0.2 0.4 0l1.9 1.9c0.2 0.2 0.1 0.4-0.1 0.4-0.1 0-0.2-0.1-0.3-0.1l-1.3-1.3c-0.1 0-0.2-0.1-0.2-0.1z"/>
	<path class="st0" d="m30.7 29.1v15.3c0 1 0.8 1.7 1.7 1.7h15.3c0.9 0 1.7-0.7 1.7-1.7v-15.3c0-1-0.8-1.7-1.7-1.7h-15.3c-1 0.1-1.7 0.8-1.7 1.7z"/>
		<path class="st1" d="m40.3 41v-2.1-6.8-0.2s-0.1-0.2-0.2-0.2-0.2 0.1-0.2 0.2 0 0.1 0 0.2v8.6 0.2c-0.1-0.1-0.1-0.1-0.2-0.1l-1.3-1.3c-0.1-0.1-0.2-0.1-0.3-0.1s-0.2 0.1-0.2 0.2 0 0.2 0.1 0.3l0.9 0.9 1 1c0.2 0.2 0.3 0.2 0.4 0l1.9-1.9c0.2-0.2 0.1-0.4-0.1-0.4-0.1 0-0.2 0.1-0.3 0.1l-1.3 1.3c-0.1 0-0.2 0-0.2 0.1z"/>
</svg>
